<svg version="1.2" xmlns="http://www.w3.org/2000/svg" viewBox="0 0 512 512" width="512" height="512">
	<title>farmer-svg</title>
	<style>
		.s0 { fill: #7bc145 } 
	</style>
	<path id="Layer" class="s0" d="m181 390v-61c21.9 13.3 47.6 21 75 21c27.4 0 53.1-7.7 75-21v61zm-60 15v107h-65c-8.3 0-15-6.7-15-15v-82c0-52.4 42.6-95 95-95h15v70h-15c-8.3 0-15 6.7-15 15zm45 15h180h15v92h-210v-92zm305-5v82c0 8.3-6.7 15-15 15h-65v-107c0-8.3-6.7-15-15-15h-15v-70h15c52.4 0 95 42.6 95 95zm-15-260h-400c-8.3 0-15-6.7-15-15c0-24.9 20.1-45 45-45h340c24.9 0 45 20.1 45 45c0 8.3-6.7 15-15 15zm-79.9-90h-240.2c12.5-37.7 48.2-65 90.1-65h60c41.9 0 77.6 27.3 90.1 65zm-235.1 120h230v20c0 63.4-51.6 115-115 115c-63.4 0-115-51.6-115-115z" />
</svg>