<svg version="1.2" xmlns="http://www.w3.org/2000/svg" viewBox="0 0 59 59" width="59" height="59">
	<title>plant-svg</title>
	<style>
		.s0 { fill: #7bc145 } 
	</style>
	<g id="001---Gardening">
		<path id="Shape" fill-rule="evenodd" class="s0" d="m29.7 58.1l-2.9-23.1h26.4l-2.9 23.1c-0.1 0.5-0.5 0.9-1 0.9h-18.6c-0.5 0-0.9-0.4-1-0.9zm-8.7-53.2q0-0.1 0-0.2q0 0 0-0.1q0.1-0.2 0.2-0.3q0 0 0-0.1q0.1-0.1 0.2-0.2q0.1 0 0.1 0q0.1-0.1 0.2-0.1c0.3-0.1 7.1-2.5 11.9 0.7c4.3 2.9 5.3 9.2 5.5 10.7q0.6 0.8 0.9 1.8q0.3-1 0.9-1.8c0.2-1.5 1.2-7.8 5.5-10.7c4.8-3.2 11.7-0.8 11.9-0.7q0.1 0 0.2 0.1q0 0 0.1 0q0.1 0.1 0.2 0.2q0 0.1 0 0.1q0.1 0.1 0.2 0.3q0 0.1 0 0.1q0 0.1 0 0.2c0 0.3-0.7 7.7-5.5 11c-1.9 1.1-4 1.7-6.2 1.6q-2.6 0-5.1-0.7q-0.9 2.4-1.2 4.9v2.3h14c0.3 0 0.6 0.1 0.8 0.3c0.1 0.3 0.2 0.5 0.2 0.8l-0.9 7c-0.1 0.5-0.5 0.9-1 0.9h-28.2c-0.5 0-0.9-0.4-1-0.9l-0.9-7c0-0.3 0.1-0.5 0.2-0.8c0.2-0.2 0.5-0.3 0.8-0.3h14v-2.3q-0.3-2.5-1.2-4.9q-2.5 0.7-5.1 0.7c-2.2 0.1-4.3-0.5-6.2-1.6c-4.8-3.3-5.5-10.7-5.5-11zm10 23.1c0-0.6-0.4-1-1-1h-2c-0.6 0-1 0.4-1 1c0 0.6 0.4 1 1 1h2c0.6 0 1-0.4 1-1zm3-1c-0.6 0-1 0.4-1 1c0 0.6 0.4 1 1 1h7c0.6 0 1-0.4 1-1c0-0.6-0.4-1-1-1zm-28-9v-14c0-2.2 1.8-4 4-4c2.2 0 4 1.8 4 4v14c0 1.4-0.8 2.7-2 3.5c-1.2 0.7-2.8 0.7-4 0c-1.2-0.8-2-2.1-2-3.5zm3-14c0 0.6 0.4 1 1 1c0.6 0 1-0.4 1-1c0-0.6-0.4-1-1-1c-0.6 0-1 0.4-1 1zm3 19.6v3.5q0 0 0 0c-0.6 5.5-1.4 8.2-2 8.8c-0.6-0.6-1.4-3.3-2-8.8q0 0 0 0v-3.5c1.3 0.5 2.7 0.5 4 0zm-12 12.3c0-5.5 2.5-7.8 6.1-8.5c1 10.6 3 10.6 3.9 10.6c0.9 0 2.9 0 3.9-10.6c3.6 0.7 6.1 3 6.1 8.5c0 7.3-5 22.1-10 22.1c-5 0-10-14.8-10-22.1z" />
	</g>
</svg>