<svg version="1.2" xmlns="http://www.w3.org/2000/svg" viewBox="0 0 64 64" width="64" height="64">
	<title>tools-svg</title>
	<style>
		.s0 { fill: #7bc145 } 
	</style>
	<path id="Layer" fill-rule="evenodd" class="s0" d="m13.3 8.6q-0.3-0.8-0.3-1.6c0-2.2 1.8-4 4-4c2.2 0 4 1.8 4 4q0 0.8-0.3 1.6l-1.2 3.1q-1.2 3.2-1.4 6.6c-0.1 1.2 0.1 2.5 0.6 3.7l0.6 1.5c0.3 0.8 0.8 1.4 1.5 1.8l-3.8 8.3l-3.8-8.3c0.7-0.4 1.2-1 1.5-1.8l0.6-1.5c0.5-1.2 0.7-2.5 0.6-3.7c-0.1-2.2-0.6-4.5-1.4-6.6zm2.7-1.5c0 0.5 0.4 1 1 1c0.5 0 1-0.5 1-1c0-0.6-0.5-1-1-1c-0.6 0-1 0.4-1 1zm-9 25.9v-2.9c0-2.2 1.8-4 4-4q0.2 0 0.3-0.1l1.2 2.6c-1.5 0.6-3.8 1.9-5.5 4.4zm20 7.1v3.9c0 6-2.9 11.6-7.7 15.2l-2.3 1.6l-2.3-1.6c-4.8-3.6-7.7-9.2-7.7-15.2v-3.9c0-6.4 4.3-8.9 6.3-9.7l3.7 8.1l3.7-8.1c1.9 0.8 6.3 3.3 6.3 9.7zm0-10v2.9c-1.7-2.5-4.1-3.8-5.5-4.4l1.1-2.6q0.2 0.1 0.4 0.1c2.2 0 4 1.8 4 4zm31 14v15c0 1.6-1.4 3-3 3c-0.6 0-1-0.5-1-1v-14c0-1.7-1.4-3-3-3c-1.7 0-3 1.3-3 3v14c0 0.5-0.5 1-1 1h-2c-0.6 0-1-0.5-1-1v-14c0-1.7-1.4-3-3-3c-1.7 0-3 1.3-3 3v14c0 0.5-0.5 1-1 1c-1.7 0-3-1.4-3-3c0-3.6 0-9.7 0-15.1c0-4.4 5.9-7.9 12-7.9c6 0 12 3.5 12 8zm0-5.7v0.7c-2.6-3-7.2-5-12-5c-4.8 0-9.5 2-12 5v-0.8c0-3.2 1.9-6.1 4.8-7.4c2.5-1.1 4.2-3.6 4.2-6.4v-7.8c0-1.1-0.3-2.1-0.8-3.1c-0.8-1.7-1.2-3.5-1.2-5.4v-1.1c0-2.8 2.2-5 5-5c2.7 0 5 2.2 5 5v1.1c0 1.9-0.4 3.7-1.3 5.4c-0.5 1-0.7 2-0.7 3.1v7.8c0 2.8 1.6 5.3 4.1 6.4c3 1.3 4.9 4.2 4.9 7.5zm-11-31.3c0-0.6-0.5-1-1-1c-0.6 0-1 0.4-1 1c0 0.5 0.4 1 1 1c0.5 0 1-0.5 1-1z" />
</svg>